<?xml version="1.0" encoding="UTF-8"?>
<svg xmlns="http://www.w3.org/2000/svg" viewBox="0 0 1024 1024">
  <defs>
    <style>
      .cls-1 {
        fill: #18150f;
      }

      .cls-2 {
        fill: #c72f13;
      }

      .cls-3 {
        fill: #e8d4ba;
      }
    </style>
  </defs>
  <g id="Layer_2" data-name="Layer 2">
    <rect class="cls-2" width="1024" height="1024"/>
  </g>
  <g id="Layer_1" data-name="Layer 1">
    <path class="cls-3" d="M496.66,420.65c-15.12,15.91-36.1,24.77-57.42,29.08-8.36,1.69-33.71,6.82-40.73,6.28-1.51-.12-3-.55-4.38-1.13,4.48-26.27,7.82-52.79,12.17-79.09,1.47-8.88,3.9-17.7,5.42-26.58,3.55-20.87,5.33-47.75,10.56-67.44.49-1.86,1.23-4.07,2.45-5.55,2.69-3.25,15.1-4.97,20.05-5.95,33.11-6.54,76.44-13.09,84.79,30.67,6.61,34.64-8.26,93.77-32.9,119.71ZM464.76,303.26c-4.82.71-7.5,1.42-8.52,6.48-6.7,33.44-10.76,67.67-16.85,101.19l1.09,2.04c9.13-3.03,17.34-4.77,24.99-10.99,11.88-9.67,16.55-24.52,20.03-38.97,4.74-19.66,12.46-64.66-20.75-59.75Z"/>
    <path class="cls-3" d="M343.78,287.28c72.11-8.19,49.61,98.99,31.4,137.4-12.61,26.59-40.18,56.57-71.79,57.22-49.75,1.02-41.27-72.6-32.89-103.9,9.1-34,33.46-86.19,73.28-90.72ZM308.31,441.69c5.16,5.62,14.74,1.78,19.71-2.17,18.72-14.88,27.8-75.21,26.01-98.06-.89-11.3-6.07-20.68-18.74-15.66-22.61,8.96-30.25,66.26-31.29,87.71-.32,6.56-.16,23.33,4.3,28.18Z"/>
    <path class="cls-3" d="M610.99,389l-40.01,7.48c-3.14,1.88-6.87,26.52-9.97,31.03l-37.66,7.44c-1.79.24-3.39-.76-4.02-2.44,23.28-61.06,44.86-122.78,67.64-184.05l5.79-6.21,44.66-7.15c1.65.42,2.13,5.63,2.44,7.52,1.9,11.42,1.45,23.43,2.4,34.84,3.26,39.04,7.52,78.11,10.71,117.05.56,6.84,1.43,14.75-6.93,16.04-6.57-1.45-26.92,5.87-31.41,4.32s-1.86-21.07-3.65-25.88ZM581,362.99c6.74-.23,13.03-2.79,19.61-3.88,2.72-.45,8.34.99,9.24-1.76-1.01-12.93-.44-25.91-.87-38.85-.17-5.21-.92-8.88-.94-14.97-.02-5.51-.07-11.04-.06-16.54l-26.99,75.99Z"/>
    <path class="cls-3" d="M289.36,521.83c2.33-.87,14.81-2.8,16.21-.88l-12.58,66.56c-2.47,4.61,29.22-3.33,29.03-3.99,4.64-23.36,6.86-47.77,12.91-71.09,10.25-4.03,22.49-4.89,32.64-5.81l4.28-.48-31.79,182.41-1.75,1.25c-54.86,7.37-32.5,19.11-21.32-68.81-1.28-1.24-14.18,3.11-16.79,3.7-3.15.71-13.22,1.21-14.29,2.96-5.44,17.8-6.28,60.17-13.85,74.91-2.3,2.6-31.63,6.72-34.13,4.99s1.49-14.18,1.92-17.2c8.36-52.85,15.23-112.78,28.07-163.93"/>
    <path class="cls-3" d="M451.76,488.26c23.22-2.95,40.57,10.95,45.01,33.48,8.28,41.97-11.27,108.14-43.24,137.29-28.58,26.06-71.04,32.03-80.85-14.2-10.56-49.78,20.05-149.06,79.08-156.57ZM413.29,639.72c4.77,5.81,14.64,2.84,19.75-1.18,18.44-14.52,29.23-75.81,25.86-97.93-4.48-29.36-26.52-11.64-34.75,5.04s-17.47,67.25-13.91,85.62c.31,1.62,2.19,7.39,3.06,8.45Z"/>
    <path class="cls-3" d="M529.23,477.23c2.82-1.19,5.96-1.9,8.96-2.5,15.08-3.03,35.23-8.61,50.14-8.35,59.31,1.06,41.68,78.42,9.68,106.13-15.81,13.69-32.31,17.24-52.53,20.47l-11.45,56.55c-.99,1.22-2.31,1.78-3.78,2.22-3.07.91-30.08,5.65-31.6,5.17-1.16-.36-1.59-1.33-1.68-2.46,6.83-40.78,14.3-81.55,21.74-122.26,1.04-5.69,1.99-11.41,3.05-16.95s5.5-36.11,7.47-38.03ZM551,559.99c12.49-1.77,25.07-6.44,31.8-17.69,13.05-21.81,10.52-51.77-21.64-39.14l-10.15,56.83Z"/>
    <path class="cls-3" d="M252.25,320.77c.29.17,4.76,4.33,4.84,4.65.69,2.66-2.97,9.5-4.52,13.48-1.14,2.93-6.2,19.8-7.11,20.39-2.9,1.87-14.33-5.89-18.61-6.63-18.37-3.15-39.04,17.51-24.31,33.3,15.08,16.16,42.18,18.81,42.97,49.12,1.21,46.45-48.65,85.04-93.18,74.09-5.03-1.23-17.09-7.86-16.56-14,.58-6.66,14.6-23.44,17.27-30.85,3.18-2.48,6.61,3.28,9.22,4.92,12.68,7.92,25.18,7.08,35.34-4.3,19.11-21.4-7.09-30.97-20.55-42.5-57.72-49.43,26.5-130.88,75.18-101.67Z"/>
    <path class="cls-3" d="M228.87,576.87c-1.85,1.15-12.8-4.82-16.7-5.57-21.06-4.04-41.06,19.47-20.08,37.11,16.5,13.87,36.88,19.03,37,46.09.21,45.22-47.62,83.02-91.3,69.21-4.74-1.5-19.14-7.97-17.61-13.95l17.8-29.3c3.6-2.29,12.91,7.9,17.33,9.73,18.31,7.61,43.77-14.76,29.11-33.11-13.07-16.35-36.83-18.3-40.96-45.04-5.58-36.14,29.32-74.44,65.02-77.09,6.5-.48,31.89,1.24,33.48,10.23.12.67-.07,1.34-.42,1.92-3.31,5.42-11.32,28.92-12.66,29.76Z"/>
    <path class="cls-1" d="M571.65,703.35c5.49,5.6,3.52,15.5-4.25,17.54-114.05,8.19-230.9,23.76-338.37,63.64-5.33,1.98-20.8,9.88-24.75,10.25-11.14,1.04-18.48-12.11-9.22-19.22,4.89-3.75,25.8-11.75,32.68-14.32,53.9-20.14,118.08-32.55,174.93-42.07,48.53-8.13,102.71-16.87,151.79-18.21,4.87-.13,13.82-1.06,17.19,2.39Z"/>
  </g>
  <g id="Layer_3" data-name="Layer 3">
    <path class="cls-1" d="M785.66,170.23c0,22.45-18.2,40.65-40.65,40.65s-40.65-18.2-40.65-40.65,18.2-40.65,40.65-40.65,40.65,18.2,40.65,40.65ZM771.29,170.3c0-14.6-11.84-26.44-26.44-26.44s-26.44,11.84-26.44,26.44,11.84,26.44,26.44,26.44,26.44-11.84,26.44-26.44Z"/>
    <path class="cls-1" d="M782.46,326.95c0,18.46-14.96,33.42-33.42,33.42s-33.42-14.96-33.42-33.42,14.96-33.42,33.42-33.42,33.42,14.96,33.42,33.42ZM767.93,327.03c0-10.68-8.66-19.34-19.34-19.34s-19.34,8.66-19.34,19.34,8.66,19.34,19.34,19.34,19.34-8.66,19.34-19.34Z"/>
    <path class="cls-1" d="M844.71,260.01c0,15.98-12.95,28.93-28.93,28.93s-28.93-12.95-28.93-28.93,12.95-28.93,28.93-28.93,28.93,12.95,28.93,28.93ZM812.46,245.47c-2.36.21-6.73,3.21-8.45,5.04-14.05,14.96,11.78,36.97,25,18,8.74-12.53-2.93-24.27-16.55-23.04Z"/>
    <path class="cls-1" d="M816.63,387.55c0,10.46-8.48,18.94-18.94,18.94s-18.94-8.48-18.94-18.94,8.48-18.94,18.94-18.94,18.94,8.48,18.94,18.94ZM803.05,387.84c0-3.09-2.5-5.59-5.59-5.59s-5.59,2.5-5.59,5.59,2.5,5.59,5.59,5.59,5.59-2.5,5.59-5.59Z"/>
    <path class="cls-1" d="M939.65,532.38l-142.07,271.93c-18.97,32.46-64.6,27.95-95.8,19.2-28.13-7.89-86.42-36.95-87.03-71.05,18.22-103.73,37.17-207.32,57.3-310.68,6.45-18.74,23.18-25.01,41.53-26.47,63.61-5.07,160.92,23.34,208.67,66.73,14.23,12.92,26.37,30.59,17.4,50.34Z"/>
    <path class="cls-1" d="M882.54,554.04c3.21-.15,22.49-3.03,23.46-2.04l-.78,4.72c-23.32,44.6-47.09,88.99-70.4,133.6-17.34,33.18-34.19,73.15-53.63,104.37-7.22,11.6-18.25,16.36-31.65,17.35-34.71,2.55-79.67-14.4-105.01-38.07-15.61-14.58-14.53-20.1-11.23-40.18,8.15-49.59,18.23-99.24,27.42-148.58,3.36-18.05,6.02-36.25,9.78-54.22,2.25-3.31,10.19,5.71,12.57,7.44,17.27,12.55,47.72,31.11,67.94,37.06,12.12,3.56,19.99-6.21,10.96-15.95-25.32-10.04-51.14-22.23-71.96-40.04-1.59-1.36-4.91-4.22-6.25-5.48-3.4-3.21-7.68-6.63-7.86-11.5-.12-3.37,3.48-26,5.62-26.51,2.15-.04,2.69,2.33,3.9,3.58,40.63,41.79,98.28,63.76,155.23,71.27"/>
    <path class="cls-1" d="M773.74,434.31c3.99,1.79,3.33.94,7.66,1.79,38.98,7.62,85.96,25.05,117.51,49.48,10.17,7.87,30.13,24.51,21.95,38.78-2.21,3.86-14.34,6.48-16.86,5.2-1.09-.55-2.7-3.75-3.98-5.08-44.54-46.74-129.08-72.48-192.45-64.39-8.3,1.06-10.78,4.86-16.79-5.37-15.13-25.79,32.97-25.44,46.75-24.75,4.97.25,33.73,3.25,36.2,4.35Z"/>
    <circle class="cls-3" cx="797.46" cy="387.84" r="5.59"/>
    <path class="cls-3" d="M812.46,245.47c13.61-1.23,25.29,10.51,16.55,23.04-13.22,18.97-39.05-3.04-25-18,1.72-1.83,6.09-4.82,8.45-5.04Z"/>
    <circle class="cls-3" cx="748.59" cy="327.03" r="19.34"/>
    <circle class="cls-3" cx="744.85" cy="170.3" r="26.44"/>
    <path class="cls-3" d="M884.26,555.32c3.21-.15,22.49-3.03,23.46-2.04l-.78,4.72c-23.32,44.6-47.09,88.99-70.4,133.6-17.34,33.18-34.19,73.15-53.63,104.37-7.22,11.6-18.25,16.36-31.65,17.35-34.71,2.55-79.67-14.4-105.01-38.07-15.61-14.58-14.53-20.1-11.23-40.18,8.15-49.59,18.23-99.24,27.42-148.58,3.36-18.05,6.02-36.25,9.78-54.22,2.25-3.31,10.19,5.71,12.57,7.44,17.27,12.55,47.72,31.11,67.94,37.06,12.12,3.56,19.99-6.21,10.96-15.95-25.32-10.04-51.14-22.23-71.96-40.04-1.59-1.36-4.91-4.22-6.25-5.48-3.4-3.21-7.68-6.63-7.86-11.5-.12-3.37,3.48-26,5.62-26.51,2.15-.04,2.69,2.33,3.9,3.58,40.63,41.79,98.28,63.76,155.23,71.27"/>
    <path class="cls-3" d="M775.45,435.59c3.99,1.79,3.33.94,7.66,1.79,38.98,7.62,85.96,25.05,117.51,49.48,10.17,7.87,30.13,24.51,21.95,38.78-2.21,3.86-14.34,6.48-16.86,5.2-1.09-.55-2.7-3.75-3.98-5.08-44.54-46.74-129.08-72.48-192.45-64.39-8.3,1.06-10.78,4.86-16.79-5.37-15.13-25.79,32.97-25.44,46.75-24.75,4.97.25,33.73,3.25,36.2,4.35Z"/>
  </g>
</svg>